<?xml version="1.0" encoding="UTF-8"?>
<svg id="Capa_1" data-name="Capa 1" xmlns="http://www.w3.org/2000/svg" viewBox="0 0 16 16">
  <defs>
    <style>
      .cls-1 {
        fill: #000;
        stroke-width: 0px;
      }

      .cls-2 {
        fill: #fff;
        stroke: #000;
        stroke-miterlimit: 10;
        stroke-width: .1px;
      }
    </style>
  </defs>
  <g>
    <polygon class="cls-1" points="11.16 7.69 4.84 7.69 3.86 8.52 3.63 6.42 4.84 6.88 11.16 6.88 12.35 6.32 12.25 8.63 11.16 7.69"/>
    <circle class="cls-2" cx="4.94" cy="7.33" r=".74"/>
    <circle class="cls-2" cx="11.01" cy="7.33" r=".74"/>
    <rect class="cls-1" x="4.91" y="6.09" width=".06" height="2.44"/>
    <rect class="cls-1" x="10.98" y="6.1" width=".06" height="2.44"/>
    <rect class="cls-1" x="10.83" y="6.1" width=".06" height="2.44" transform="translate(3.54 18.19) rotate(-90)"/>
    <rect class="cls-1" x="4.91" y="6.09" width=".06" height="2.44" transform="translate(-2.37 12.25) rotate(-90)"/>
    <rect class="cls-1" x="12.2" y="3.78" width="3.3" height="7.53" rx="1.04" ry="1.04" transform="translate(.53 -.9) rotate(3.8)"/>
    <rect class="cls-1" x=".49" y="3.82" width="3.3" height="7.53" rx="1.04" ry="1.04" transform="translate(4.79 15.02) rotate(176.2)"/>
  </g>
  <g>
    <path class="cls-2" d="M14.33,11.3l-.25-.03c-.07,0-.12-.1-.12-.2l.45-7.06c0-.1.07-.18.14-.17l.25.03c.07,0,.12.1.12.2l-.45,7.06c0,.1-.07.18-.14.17Z"/>
    <polygon class="cls-1" points="14.39 4.1 14.91 4.24 14.9 4.35 14.39 4.22 14.39 4.1"/>
    <polygon class="cls-1" points="14.36 4.56 14.88 4.71 14.88 4.82 14.36 4.69 14.36 4.56"/>
    <polygon class="cls-1" points="14.32 5.13 14.84 5.27 14.84 5.38 14.32 5.25 14.32 5.13"/>
    <polygon class="cls-1" points="14.29 5.78 14.8 5.92 14.8 6.03 14.28 5.9 14.29 5.78"/>
    <polygon class="cls-1" points="14.25 6.52 14.75 6.66 14.75 6.77 14.25 6.64 14.25 6.52"/>
    <polygon class="cls-1" points="14.2 7.35 14.7 7.49 14.7 7.6 14.2 7.47 14.2 7.35"/>
    <polygon class="cls-1" points="14.14 8.23 14.64 8.37 14.64 8.48 14.13 8.35 14.14 8.23"/>
    <polygon class="cls-1" points="14.08 8.98 14.6 9.12 14.59 9.23 14.08 9.1 14.08 8.98"/>
    <polygon class="cls-1" points="14.04 9.68 14.55 9.82 14.55 9.93 14.03 9.8 14.04 9.68"/>
    <polygon class="cls-1" points="13.96 10.79 14.48 10.93 14.48 11.04 13.96 10.91 13.96 10.79"/>
    <polygon class="cls-1" points="14 10.28 14.51 10.42 14.51 10.53 14 10.4 14 10.28"/>
  </g>
  <g>
    <path class="cls-2" d="M13.15,11.24l-.25-.03c-.07,0-.12-.1-.12-.2l.45-7.06c0-.1.07-.18.14-.17l.25.03c.07,0,.12.1.12.2l-.45,7.06c0,.1-.07.18-.14.17Z"/>
    <polygon class="cls-1" points="13.22 4.03 13.73 4.17 13.73 4.28 13.22 4.15 13.22 4.03"/>
    <polygon class="cls-1" points="13.19 4.5 13.7 4.64 13.7 4.75 13.19 4.62 13.19 4.5"/>
    <polygon class="cls-1" points="13.15 5.07 13.67 5.21 13.67 5.32 13.15 5.19 13.15 5.07"/>
    <polygon class="cls-1" points="13.11 5.71 13.63 5.85 13.63 5.96 13.11 5.83 13.11 5.71"/>
    <polygon class="cls-1" points="13.08 6.46 13.58 6.6 13.58 6.71 13.07 6.58 13.08 6.46"/>
    <polygon class="cls-1" points="13.03 7.29 13.53 7.43 13.52 7.54 13.02 7.41 13.03 7.29"/>
    <polygon class="cls-1" points="12.96 8.16 13.47 8.31 13.47 8.41 12.96 8.28 12.96 8.16"/>
    <polygon class="cls-1" points="12.91 8.91 13.42 9.05 13.42 9.16 12.91 9.03 12.91 8.91"/>
    <polygon class="cls-1" points="12.86 9.62 13.38 9.76 13.38 9.87 12.86 9.74 12.86 9.62"/>
    <polygon class="cls-1" points="12.79 10.72 13.31 10.87 13.31 10.98 12.79 10.85 12.79 10.72"/>
    <polygon class="cls-1" points="12.83 10.22 13.34 10.36 13.34 10.47 12.83 10.34 12.83 10.22"/>
  </g>
  <g>
    <path class="cls-2" d="M1.67,11.37l.25-.03c.07,0,.12-.1.12-.2l-.45-7.06c0-.1-.07-.18-.14-.17l-.25.03c-.07,0-.12.1-.12.2l.45,7.06c0,.1.07.18.14.17Z"/>
    <polygon class="cls-1" points="1.6 4.16 1.09 4.3 1.09 4.41 1.6 4.28 1.6 4.16"/>
    <polygon class="cls-1" points="1.63 4.63 1.12 4.77 1.12 4.88 1.63 4.75 1.63 4.63"/>
    <polygon class="cls-1" points="1.67 5.19 1.15 5.33 1.16 5.44 1.67 5.31 1.67 5.19"/>
    <polygon class="cls-1" points="1.71 5.84 1.19 5.98 1.2 6.09 1.71 5.96 1.71 5.84"/>
    <polygon class="cls-1" points="1.75 6.58 1.24 6.72 1.24 6.83 1.75 6.7 1.75 6.58"/>
    <polygon class="cls-1" points="1.8 7.41 1.3 7.55 1.3 7.66 1.8 7.53 1.8 7.41"/>
    <polygon class="cls-1" points="1.86 8.29 1.35 8.43 1.35 8.54 1.86 8.41 1.86 8.29"/>
    <polygon class="cls-1" points="1.91 9.04 1.4 9.18 1.4 9.29 1.91 9.16 1.91 9.04"/>
    <polygon class="cls-1" points="1.96 9.74 1.44 9.88 1.45 9.99 1.96 9.86 1.96 9.74"/>
    <polygon class="cls-1" points="2.03 10.85 1.51 10.99 1.52 11.1 2.03 10.97 2.03 10.85"/>
    <polygon class="cls-1" points="1.99 10.34 1.48 10.48 1.48 10.59 1.99 10.46 1.99 10.34"/>
  </g>
  <g>
    <path class="cls-2" d="M2.84,11.3l.25-.03c.07,0,.12-.1.12-.2l-.45-7.06c0-.1-.07-.18-.14-.17l-.25.03c-.07,0-.12.1-.12.2l.45,7.06c0,.1.07.18.14.17Z"/>
    <polygon class="cls-1" points="2.77 4.09 2.26 4.24 2.26 4.35 2.78 4.22 2.77 4.09"/>
    <polygon class="cls-1" points="2.8 4.56 2.29 4.7 2.29 4.81 2.81 4.68 2.8 4.56"/>
    <polygon class="cls-1" points="2.84 5.13 2.33 5.27 2.33 5.38 2.85 5.25 2.84 5.13"/>
    <polygon class="cls-1" points="2.88 5.78 2.37 5.92 2.37 6.03 2.88 5.9 2.88 5.78"/>
    <polygon class="cls-1" points="2.92 6.52 2.42 6.66 2.42 6.77 2.92 6.64 2.92 6.52"/>
    <polygon class="cls-1" points="2.97 7.35 2.47 7.49 2.47 7.6 2.97 7.47 2.97 7.35"/>
    <polygon class="cls-1" points="3.03 8.23 2.52 8.37 2.53 8.48 3.03 8.35 3.03 8.23"/>
    <polygon class="cls-1" points="3.08 8.97 2.57 9.11 2.57 9.22 3.09 9.09 3.08 8.97"/>
    <polygon class="cls-1" points="3.13 9.68 2.62 9.82 2.62 9.93 3.13 9.8 3.13 9.68"/>
    <polygon class="cls-1" points="3.2 10.79 2.69 10.93 2.69 11.04 3.21 10.91 3.2 10.79"/>
    <polygon class="cls-1" points="3.16 10.28 2.65 10.42 2.66 10.53 3.17 10.4 3.16 10.28"/>
  </g>
</svg>