<?xml version="1.0" encoding="utf-8"?>
<!-- Generator: Adobe Illustrator 28.3.0, SVG Export Plug-In . SVG Version: 6.00 Build 0)  -->
<svg version="1.1" id="Capa_1" xmlns="http://www.w3.org/2000/svg" xmlns:xlink="http://www.w3.org/1999/xlink" x="0px" y="0px"
	 viewBox="0 0 110 110" style="enable-background:new 0 0 110 110;" xml:space="preserve">
<style type="text/css">
	.st0{fill:#1D1D1B;}
	.st1{fill:#FFFFFF;}
	.st2{fill:#FCC306;}
</style>
<circle class="st0" cx="55" cy="55" r="55"/>
<circle class="st1" cx="55" cy="56.3" r="49.3"/>
<path class="st2" d="M56.8,4.2C28,4.2,4.7,27.5,4.7,56.3c0,28.8,23.3,52.1,52.1,52.1s52.1-23.3,52.1-52.1
	C108.9,27.5,85.6,4.2,56.8,4.2z M55,105.6c-27.2,0-49.3-22.1-49.3-49.3C5.7,29.1,27.8,7.1,55,7.1c27.2,0,49.3,22.1,49.3,49.3
	C104.3,83.5,82.2,105.6,55,105.6z"/>
<image style="overflow:visible;" width="230" height="230" xlink:href="../../../Allgarage - logo rrss.png"  transform="matrix(0.48 0 0 0.48 62.3999 -274.6465)">
</image>
<g>
	<path class="st0" d="M98.1,75.8c-0.8,2.7-2.8,4.8-5.3,5.7c-0.7,0.3-1.5,0.4-2.2,0.4L15.5,82c-2.9,0-4.1-2-3.1-5.5
		c0.3-1,1.2-1.6,1.2-1.6s-0.4-0.4-0.4-1.7c0-0.7,0.2-1.4,0.4-2.1l4.3-12c0.3-1.1,1.7-4.1,5.2-4.1l8.4-0.2h69.3
		c1.9,0,3.2,1.9,2.7,3.8l-0.1,0.2c-0.3,1-0.9,1.8-1.6,2.5l0,0h0c0.3,0.8,0.4,1.6,0.2,2.4L98.1,75.8z"/>
	<g>
		<path class="st1" d="M75.2,59.6h-2.7c-0.5,0-0.8,0.7-0.5,1c1,1,1.3,2.2,0.8,3.5l-0.8,2.1c-0.7,1.8-2.7,3.3-5.3,4.4
			c-0.4,0.1-0.5,0.6-0.3,0.9l1.9,3.2c0.2,0.4,0,0.9-0.5,0.9h-8.7c-0.2,0-0.4-0.1-0.5-0.3l-1.9-3.1c-0.1-0.2-0.3-0.3-0.5-0.3H54
			c-0.3,0-0.5,0.2-0.6,0.4l-1.1,3c-0.1,0.2-0.3,0.4-0.6,0.4H43c-0.4,0-0.7-0.4-0.6-0.8l0.6-1.5c0.7-2,4.1-3.6,7.6-3.6h6
			c2.3,0,4.5-1,5-2.3l1.7-4.5c0.5-1.3-1-2.3-3.2-2.3h-1.7c-0.3,0-0.5,0.2-0.6,0.4l-2.1,5.6c-0.1,0.2-0.3,0.4-0.6,0.4h-8.8
			c-0.4,0-0.7-0.4-0.6-0.8l2.1-5.8c0.2-0.4-0.2-0.8-0.6-0.8H42H31.2c-0.3,0-0.5,0.2-0.6,0.4l-4.3,12.6c-0.1,0.4,0.2,0.8,0.6,0.8h4.3
			c0.3,0,0.5-0.2,0.6-0.4l1.4-4c0.1-0.4-0.2-0.8-0.6-0.8h-2c-0.4,0-0.7-0.4-0.6-0.8l0.4-1.1c0.1-0.3,0.3-0.4,0.6-0.4h12.6
			c0.4,0,0.7,0.4,0.6,0.8l-2.3,6.7c-0.4,1.3-2.5,2.3-4.5,2.3H18.9c-2.1,0-3.4-1-3-2.3l4.7-13.8c0.4-1.3,2.5-2.3,4.6-2.3h19.3h31.4
			h18.7l5.7-0.1c0.4,0,0.7,0.4,0.6,0.9l-0.4,1.1c-0.1,0.2-0.3,0.4-0.6,0.4l-5.2,0.1H75.2z"/>
		<path class="st2" d="M68.8,79.3H14.5c-0.5,0-0.8-0.5-0.6-0.9l0.5-1.1c0.1-0.2,0.3-0.4,0.6-0.4h53.8h2.4h13.1
			c0.3,0,0.5-0.2,0.6-0.4l0,0c0.1-0.4-0.2-0.8-0.6-0.8h-5.3c-4.6,0-7.5-2.3-6.5-5l1.6-4.8c0.9-2.8,5.4-5,10-5h8.1
			c4.6,0,7.5,2.3,6.5,5l-2.9,8.4c-0.9,2.8-5.4,5-10,5H71.2H68.8z M88.6,63.1h-3c-0.3,0-0.5,0.2-0.6,0.4l-3.1,9.1
			c-0.1,0.4,0.2,0.8,0.6,0.8h3c0.3,0,0.5-0.2,0.6-0.4l3.1-9.1C89.3,63.5,89,63.1,88.6,63.1z"/>
	</g>
	<g>
		<path class="st0" d="M20.5,52.8l14.1-19.6c0.1-0.1,0,0.1,0,0l-1.4-3.7c-0.7-2,1-3.1,2-3.1l16.4,0c0.8,0,2,0.3,2.3,1.9l4,25.9
			c0.5,2.8-1.3,3-2.2,3h-8.9c-1.7,0-2.1-1.2-2.3-2.1l-0.3-1.8c0-0.1,0,0-0.2,0l-9.6,0c-0.1,0,0-0.1-0.1,0l-2.3,3.3
			c-0.1,0.1-0.5,0.6-1.3,0.6h-8.7C19.5,57,19.3,54.5,20.5,52.8z"/>
		<path class="st0" d="M94.4,35.8l-3.3,11c-0.1,0.2,0.1,0.4,0.4,0.4l7.6-0.1c1.9-0.1,3.1,1.4,2.7,3.1l-1.4,5.1
			c-0.7,1.8-2,1.8-2.5,1.8H81c-2.3,0-3-1.8-2.6-3.5l4.5-14.8c0-0.1,0-0.1,0-0.2l-1.1-2.9c-0.6-2.4,1.2-3.3,2.6-3.3h7.6
			C94.9,32.4,94.7,34.8,94.4,35.8z"/>
		<path class="st0" d="M74.2,35.8l-3.3,11c-0.1,0.2,0.1,0.4,0.4,0.4l7.6-0.1c1.9-0.1,3.1,1.4,2.7,3.1l-1.4,5.1
			c-0.7,1.8-2,1.8-2.5,1.8H60.7c-2.3,0-3-1.8-2.6-3.5l4.5-14.8c0-0.1,0-0.1,0-0.2l-1.1-2.9c-0.6-2.4,1.2-3.3,2.6-3.3h7.6
			C74.6,32.4,74.5,34.8,74.2,35.8z"/>
	</g>
	<g>
		<path class="st2" d="M21.6,54.9l15.3-21.3L35,28.5h16.7l3.9,26.4h-9.1L46,51.2H33.3l-2.6,3.7H21.6z M44,36.2L38.4,44H45L44,36.2z"
			/>
		<path class="st2" d="M72,34.7l-4.2,14.8h11.5l-1.6,5.5H59.9l4.7-16.3l-1.5-3.9H72z"/>
		<path class="st2" d="M92.3,34.7l-4.2,14.8h11.5l-1.6,5.5H80.2l4.7-16.3l-1.5-3.9H92.3z"/>
	</g>
</g>
<g>
	<path class="st0" d="M-174.6-203.9c-0.8,2.6-2.8,4.6-5.4,5.5c-0.7,0.2-1.5,0.4-2.2,0.4l-75.6,0.1c-2.9,0-4.3-3.4-3.2-6.8
		c0.3-1,0.9-2.1,0.9-2.1s-0.2-0.1,0-1l3.1-12.5c0.3-1.1,1.8-3.9,5.3-3.9h9.8h69.7c1.9,0,3.3,1.9,2.7,3.7L-174.6-203.9z"/>
	<g>
		<path class="st1" d="M-196.5-219.6h-2.6c-0.5,0-0.8,0.6-0.4,1c0.9,0.9,1.2,2.1,0.8,3.4l-0.8,2c-0.6,1.7-2.6,3.2-5.1,4.2
			c-0.3,0.1-0.5,0.6-0.3,0.9l1.9,3.1c0.2,0.4,0,0.9-0.5,0.9h-8.4c-0.2,0-0.4-0.1-0.5-0.3l-1.8-3c-0.1-0.2-0.3-0.3-0.5-0.3h-2.1
			c-0.3,0-0.5,0.2-0.6,0.4l-1.1,2.9c-0.1,0.2-0.3,0.4-0.6,0.4h-8.5c-0.4,0-0.7-0.4-0.6-0.8l0.5-1.5c0.7-1.9,4-3.5,7.3-3.5h5.8
			c2.2,0,4.4-1,4.8-2.3l1.6-4.3c0.5-1.3-0.9-2.3-3.1-2.3h-1.7c-0.3,0-0.5,0.2-0.6,0.4l-2,5.5c-0.1,0.2-0.3,0.4-0.6,0.4h-8.5
			c-0.4,0-0.7-0.4-0.6-0.8l2.1-5.6c0.1-0.4-0.1-0.8-0.6-0.8h-5h-10.5c-0.3,0-0.5,0.2-0.6,0.4l-4.2,12.2c-0.1,0.4,0.2,0.8,0.6,0.8
			h4.2c0.3,0,0.5-0.2,0.6-0.4l1.3-3.8c0.1-0.4-0.2-0.8-0.6-0.8h-2c-0.4,0-0.7-0.4-0.6-0.8l0.3-1c0.1-0.2,0.3-0.4,0.6-0.4h12.2
			c0.4,0,0.7,0.4,0.6,0.8l-2.2,6.5c-0.4,1.2-2.4,2.2-4.4,2.2h-17.7c-2,0-3.3-1-2.9-2.2l4.6-13.4c0.4-1.2,2.4-2.2,4.4-2.2h18.7h30.4
			h18.1h3.5c0.4,0,0.7,0.4,0.6,0.8l-0.4,1c-0.1,0.2-0.3,0.4-0.6,0.4h-2.9H-196.5z"/>
		<path class="st2" d="M-202.8-200.6h-52.6c-0.4,0-0.7-0.5-0.5-0.9l0.5-1c0.1-0.2,0.3-0.3,0.5-0.3h52.1h2.3h12.7
			c0.3,0,0.5-0.2,0.6-0.4v0c0.1-0.4-0.2-0.8-0.6-0.8h-5.2c-4.4,0-7.3-2.2-6.3-4.9l1.6-4.7c0.9-2.7,5.2-4.9,9.7-4.9h7.8
			c4.4,0,7.3,2.2,6.3,4.9l-2.8,8.1c-0.9,2.7-5.2,4.9-9.7,4.9h-14.2H-202.8z M-183.6-216.2h-2.9c-0.3,0-0.5,0.2-0.6,0.4l-3,8.8
			c-0.1,0.4,0.2,0.8,0.6,0.8h2.9c0.3,0,0.5-0.2,0.6-0.4l3-8.8C-182.9-215.8-183.2-216.2-183.6-216.2z"/>
	</g>
	<g>
		<path class="st0" d="M-249.5-226.2l13.7-19c0.1-0.1,0,0.1,0,0l-1.3-3.6c-0.7-1.9,1-3,2-3l15.9,0c0.8,0,1.9,0.3,2.2,1.8l3.9,25.1
			c0.5,2.7-1.3,2.9-2.2,2.9h-8.6c-1.6,0-2.1-1.2-2.2-2l-0.3-1.8c0-0.1,0,0-0.1,0l-9.3,0c-0.1,0,0-0.1-0.1,0l-2.2,3.2
			c-0.1,0.1-0.5,0.6-1.3,0.6h-8.4C-250.5-222.1-250.7-224.6-249.5-226.2z"/>
		<path class="st0" d="M-177.9-242.7l-3.2,10.6c-0.1,0.2,0.1,0.4,0.3,0.4l7.4-0.1c1.9-0.1,3,1.4,2.6,3l-1.4,4.9
			c-0.6,1.7-1.9,1.8-2.4,1.7H-191c-2.2,0-2.9-1.7-2.5-3.4l4.3-14.4c0-0.1,0-0.1,0-0.2l-1.1-2.9c-0.6-2.3,1.2-3.2,2.5-3.2h7.4
			C-177.5-245.9-177.6-243.6-177.9-242.7z"/>
		<path class="st0" d="M-197.6-242.7l-3.2,10.6c-0.1,0.2,0.1,0.4,0.3,0.4l7.4-0.1c1.9-0.1,3,1.4,2.6,3l-1.4,4.9
			c-0.6,1.7-1.9,1.8-2.4,1.7h-16.3c-2.2,0-2.9-1.7-2.5-3.4l4.3-14.4c0-0.1,0-0.1,0-0.2l-1.1-2.9c-0.6-2.3,1.2-3.2,2.5-3.2h7.4
			C-197.1-246-197.3-243.6-197.6-242.7z"/>
	</g>
	<path class="st0" d="M-270-198l10,0c0.4,0,0.8-0.2,0.9-0.5l26-52.3c0.3-0.5-0.3-1-1.2-1l-8.7,0c-1.1,0-1.7,0.4-2,1l-25.7,51.8
		C-271-198.6-270.6-198-270-198z"/>
	<path class="st2" d="M-265.8-199.3l1.9,0c1.3,0,1.4-0.5,1.8-0.9c0,0,0-0.1,0.1-0.1l23-48.1c0.2-0.5-0.1-1-0.7-1l-2.2,0
		c-0.8,0-1.2,0.2-1.4,0.8l-23.1,48.4C-266.7-199.8-266.4-199.3-265.8-199.3z"/>
	<g>
		<path class="st2" d="M-248.5-224.1l14.8-20.7l-1.8-5h16.2l3.8,25.6h-8.8l-0.5-3.6h-12.4l-2.5,3.6H-248.5z M-226.8-242.3l-5.5,7.6
			h6.4L-226.8-242.3z"/>
		<path class="st2" d="M-199.6-243.8l-4.1,14.3h11.2l-1.5,5.3h-17.3l4.5-15.8l-1.4-3.8H-199.6z"/>
		<path class="st2" d="M-180-243.8l-4.1,14.3h11.2l-1.5,5.3h-17.3l4.5-15.8l-1.4-3.8H-180z"/>
	</g>
</g>
<g>
	<path class="st0" d="M-116.3,171.2c-3.9,12.3-13.3,22.2-25.6,26.2c-3.5,1.2-7.1,1.9-10.4,1.9l-361.4,0.5
		c-13.8,0.1-20.4-16.1-15.5-32.3c1.4-4.6,4.5-9.8,4.5-9.8s-1.1-0.4,0.2-4.6l15-59.8c1.3-5.1,8.4-18.8,25.2-18.8h47H-104
		c9.1,0,15.6,8.9,12.8,17.6L-116.3,171.2z"/>
	<g>
		<path class="st1" d="M-221.2,96.4h-12.6c-2.5,0-3.9,3.1-2.1,4.9c4.4,4.4,5.9,10,3.7,16l-3.6,9.8c-3,8.2-12.3,15.5-24.4,20.3
			c-1.7,0.7-2.3,2.6-1.4,4.2l8.9,14.8c1.2,1.9-0.2,4.4-2.5,4.4h-40.1c-1,0-2-0.5-2.5-1.4l-8.8-14.6c-0.5-0.9-1.5-1.4-2.5-1.4h-10.2
			c-1.2,0-2.3,0.8-2.7,1.9l-5.1,13.7c-0.4,1.1-1.5,1.9-2.7,1.9h-40.7c-2,0-3.4-2-2.7-3.9l2.6-7c3.4-9.1,19.1-16.5,35.1-16.5h27.7
			c10.5,0,20.8-4.8,23-10.8l7.7-20.7c2.2-6-4.5-10.8-15-10.8h-7.9c-1.2,0-2.3,0.8-2.7,1.9l-9.6,26.1c-0.4,1.1-1.5,1.9-2.7,1.9h-40.7
			c-2,0-3.4-2-2.7-3.9l9.9-26.7c0.7-1.9-0.7-3.9-2.7-3.9h-23.7h-50.3c-1.2,0-2.3,0.8-2.7,2l-19.9,58.4c-0.6,1.9,0.8,3.8,2.7,3.8
			h20.1c1.2,0,2.3-0.8,2.7-2l6.3-18.4c0.6-1.9-0.8-3.8-2.7-3.8h-9.4c-2,0-3.4-1.9-2.7-3.8l1.7-4.9c0.4-1.2,1.5-2,2.7-2h58.2
			c2,0,3.4,1.9,2.7,3.8l-10.6,31c-2,5.9-11.4,10.6-21,10.6h-84.8c-9.7,0-16-4.8-13.9-10.7l21.8-64c2-5.9,11.5-10.7,21.2-10.7h89.2
			h145.3h86.5h16.6c2,0,3.4,2,2.7,3.9l-1.9,4.9c-0.4,1.1-1.5,1.8-2.7,1.8h-14H-221.2z"/>
		<path class="st2" d="M-251,187.3h-251.3c-2.1,0-3.5-2.2-2.6-4.1l2.3-4.9c0.5-1,1.5-1.7,2.6-1.7h249h11h60.6c1.2,0,2.3-0.8,2.7-2
			l0,0c0.6-1.9-0.8-3.8-2.7-3.8H-204c-21.1,0-34.7-10.4-30.3-23.3l7.6-22.4c4.4-12.9,25.1-23.3,46.2-23.3h37.3
			c21.1,0,34.7,10.4,30.3,23.3l-13.2,38.8c-4.4,12.9-25.1,23.3-46.2,23.3H-240H-251z M-159.5,112.5h-14c-1.2,0-2.3,0.8-2.7,2
			l-14.3,42c-0.6,1.9,0.8,3.8,2.7,3.8h14c1.2,0,2.3-0.8,2.7-2l14.3-42C-156.1,114.4-157.5,112.5-159.5,112.5z"/>
	</g>
	<g>
		<path class="st0" d="M-474.3,64.6l65.4-90.8c0.3-0.4,0.2,0.4,0,0l-6.3-17.3c-3.2-9.2,4.6-14.4,9.4-14.4l76,0
			c3.9,0,9.2,1.5,10.5,8.8l18.4,119.7c2.2,12.7-6.2,14-10.4,14h-41.1c-7.7,0-9.8-5.6-10.5-9.6l-1.3-8.5c-0.1-0.7,0,0-0.7,0l-44.4,0
			c-0.5,0-0.2-0.4-0.5,0l-10.6,15.2c-0.3,0.4-2.2,2.9-6.2,2.9h-40.3C-479.3,84.2-480,72.6-474.3,64.6z"/>
		<path class="st0" d="M-132.4-13.9l-15.1,50.7c-0.3,0.9,0.5,1.8,1.7,1.8l35.2-0.3c8.9-0.3,14.3,6.6,12.6,14.2l-6.7,23.5
			c-3,8.3-9,8.5-11.7,8.3h-78.1c-10.5,0-13.8-8.1-11.8-16.3l20.6-68.6c0.1-0.3,0.1-0.6,0-0.9l-5.1-13.6
			c-2.8-11.1,5.7-15.3,11.8-15.3h35.2C-130.1-29.6-130.8-18.5-132.4-13.9z"/>
		<path class="st0" d="M-226.1-13.9l-15.1,50.7c-0.3,0.9,0.5,1.8,1.7,1.8l35.2-0.3c8.9-0.3,14.3,6.6,12.6,14.2l-6.7,23.5
			c-3,8.3-9,8.5-11.7,8.3h-78.1c-10.5,0-13.8-8.1-11.8-16.3l20.6-68.6c0.1-0.3,0.1-0.6,0-0.9l-5.1-13.6
			c-2.8-11.1,5.7-15.3,11.8-15.3h35.2C-223.9-29.6-224.6-18.5-226.1-13.9z"/>
	</g>
	<path class="st0" d="M-572.3,199.5l47.6,0c1.8,0,3.6-0.9,4.3-2.4l124.1-249.9c1.2-2.4-1.3-5-5.8-5l-41.5-0.1c-5.2,0-8.3,1.8-9.6,5
		l-122.9,247.4C-577.1,196.8-575.3,199.4-572.3,199.5z"/>
	<path class="st2" d="M-552.3,193.2l8.9-0.1c6.1,0.1,6.9-2.2,8.4-4.5c0.1-0.2,0.2-0.3,0.3-0.5l109.8-230c1.1-2.3-0.5-4.7-3.1-4.8
		l-10.6,0.1c-3.8-0.1-5.7,1-6.5,3.7l-110.4,231.3C-556.5,190.7-554.9,193.1-552.3,193.2z"/>
	<g>
		<path class="st2" d="M-469.4,74.6l70.9-98.7l-8.8-23.7h77.2l18.2,122.3h-42l-2.4-17.2h-59.1l-12.1,17.2H-469.4z M-365.7-12.2
			l-26,36.3h30.8L-365.7-12.2z"/>
		<path class="st2" d="M-235.9-19.2l-19.5,68.5h53.4l-7.3,25.3h-82.5l21.7-75.7l-6.8-18.1H-235.9z"/>
		<path class="st2" d="M-142.1-19.2l-19.5,68.5h53.4l-7.3,25.3h-82.5l21.7-75.7l-6.8-18.1H-142.1z"/>
	</g>
</g>
<g>
	<path class="st2" d="M6.4,78.7c-0.1-0.2-0.2-0.5-0.3-0.7C6,78.3,6.1,78.5,6.4,78.7z"/>
	<path class="st0" d="M12,81.4l23.5-54.1c0.2-0.5-0.2-1.1-1-1.1l-7.3,0c-0.9,0-1.5,0.4-1.7,1.1L4.7,74.9C5.2,75.9,5.6,77,6.1,78
		c0-0.1,0-0.1,0-0.2l21.4-48.1c0.2-0.6,0.5-0.8,1.3-0.8l2,0c0.5,0,0.8,0.5,0.6,1L10.1,77.7c0,0,0,0.1-0.1,0.1
		c-0.3,0.5-0.4,1-1.6,0.9l-1.7,0c-0.1,0-0.2,0-0.3-0.1c0.6,1.2,1.2,2.3,1.8,3.5l1.8,0C10.4,82.1,11.9,81.7,12,81.4z"/>
	<path class="st2" d="M6.7,78.8l1.7,0c1.2,0,1.3-0.5,1.6-0.9c0,0,0-0.1,0.1-0.1l21.3-47.8c0.2-0.5-0.1-1-0.6-1l-2,0
		c-0.7,0-1.1,0.2-1.3,0.8L6.1,77.8c0,0.1,0,0.1,0,0.2c0.1,0.2,0.2,0.5,0.3,0.7C6.5,78.7,6.6,78.8,6.7,78.8z"/>
</g>
</svg>
