<?xml version="1.0" encoding="UTF-8"?>
<svg id="Capa_1" data-name="Capa 1" xmlns="http://www.w3.org/2000/svg" version="1.1" viewBox="0 0 129.9 133.3">
  <defs>
    <style>
      .cls-1, .cls-2 {
        stroke: #000;
        stroke-miterlimit: 10;
      }

      .cls-1, .cls-2, .cls-3 {
        fill: #fff;
      }

      .cls-4 {
        fill: #3a3a3a;
      }

      .cls-4, .cls-5, .cls-3 {
        stroke-width: 0px;
      }

      .cls-5 {
        fill: #000;
      }

      .cls-2 {
        stroke-width: 6px;
      }
    </style>
  </defs>
  <g>
    <circle class="cls-5" cx="259" cy="198" r="30.1"/>
    <path class="cls-5" d="M308.7,190.2l-4.7-.9c-1.2-5.8-3.5-11.2-6.6-16l4.6-7.1c1-1.6.8-3.7-.6-5.1l-6.7-6.4c-1.4-1.3-3.5-1.5-5.1-.4l-6.7,4.8c-4.4-2.7-9.2-4.7-14.4-5.8l-1.3-6.8c-.4-1.9-2-3.2-3.9-3.2h-9.2c-1.9,0-3.6,1.4-3.9,3.2l-1.3,6.8c-5.2,1.1-10.2,3.2-14.6,5.9l-6.9-4.9c-1.6-1.1-3.7-1-5.1.4l-6.7,6.4c-1.4,1.3-1.6,3.4-.6,5.1l4.8,7.4c-3,4.7-5.2,9.9-6.4,15.5l-5.7,1.1c-1.9.4-3.2,2-3.2,3.9v9.2c0,1.9,1.4,3.6,3.2,3.9l5.7,1.1c1.2,5.5,3.3,10.6,6.2,15.2l-4.5,7c-1,1.6-.8,3.7.6,5.1l6.7,6.4c1.4,1.3,3.5,1.5,5.1.4l6.4-4.6c4.6,2.9,9.7,5.1,15.2,6.3l1.3,6.6c.4,1.9,2,3.2,3.9,3.2h9.2c1.9,0,3.6-1.4,3.9-3.2l1.3-6.6c5.2-1.1,10.1-3.1,14.5-5.8l5.7,4.1c1.6,1.1,3.7,1,5.1-.4l6.7-6.4c1.4-1.3,1.6-3.4.6-5.1l-3.9-6c3.3-4.9,5.6-10.4,6.9-16.4l4.7-.9c1.9-.4,3.2-2,3.2-3.9v-9.2c0-1.9-1.4-3.6-3.2-3.9ZM258.7,234c-19.5,0-35.2-15.8-35.2-35.2s15.8-35.2,35.2-35.2,35.2,15.8,35.2,35.2-15.8,35.2-35.2,35.2Z"/>
    <polygon class="cls-1" points="254.2 198.8 243.2 187.5 234.7 196.1 255.6 217.5 316 150.3 307.8 142.7 254.2 198.8"/>
  </g>
  <g>
    <path class="cls-2" d="M181.4,18.1h85.6c4.1,0,7.5,3.4,7.5,7.5v80h-100.6V25.6c0-4.1,3.4-7.5,7.5-7.5Z"/>
    <g>
      <g>
        <circle class="cls-5" cx="224.2" cy="61.8" r="30.4"/>
        <g>
          <path class="cls-5" d="M226.5,97.8h-4.4c-.5,0-.9-.3-1-.8l-1-9.5h8.5s-1,9.5-1,9.5c0,.5-.5.9-1,.9Z"/>
          <path class="cls-5" d="M210.6,95.3l-4-1.9c-.5-.2-.7-.7-.6-1.2l3.2-9,7.6,3.7-5,8.1c-.3.4-.9.6-1.3.4Z"/>
          <path class="cls-5" d="M197.4,86.1l-2.7-3.4c-.3-.4-.3-.9,0-1.3l6.8-6.8,5.3,6.6-8,5.2c-.5.3-1,.2-1.4-.2Z"/>
          <path class="cls-5" d="M189.6,72.1l-1-4.3c-.1-.5.1-1,.6-1.2l9.1-3.1,1.9,8.3-9.4,1.2c-.5,0-1-.3-1.1-.8Z"/>
          <path class="cls-5" d="M188.5,56l1-4.3c.1-.5.5-.8,1.1-.8l9.5,1.1-1.9,8.3-9-3c-.5-.2-.8-.7-.7-1.2Z"/>
          <path class="cls-5" d="M194.6,41.1l2.7-3.4c.3-.4.9-.5,1.3-.3l8.1,5.1-5.3,6.6-6.8-6.7c-.4-.4-.4-1,0-1.4Z"/>
          <path class="cls-5" d="M206.5,30.3l4-1.9c.5-.2,1,0,1.3.3l5.1,8.1-7.6,3.7-3.2-9c-.2-.5,0-1,.5-1.3Z"/>
          <path class="cls-5" d="M221.9,25.7h4.4c.5,0,.9.3,1,.8l1,9.5h-8.5s1-9.5,1-9.5c0-.5.5-.9,1-.9Z"/>
          <path class="cls-5" d="M237.8,28.3l4,1.9c.5.2.7.7.6,1.2l-3.2,9-7.6-3.7,5-8.1c.3-.4.9-.6,1.3-.4Z"/>
          <path class="cls-5" d="M250.9,37.5l2.7,3.4c.3.4.3.9,0,1.3l-6.8,6.8-5.3-6.6,8-5.2c.5-.3,1-.2,1.4.2Z"/>
          <path class="cls-5" d="M258.8,51.5l1,4.3c.1.5-.1,1-.6,1.2l-9.1,3.1-1.9-8.3,9.4-1.2c.5,0,1,.3,1.1.8Z"/>
          <path class="cls-5" d="M259.8,67.6l-1,4.3c-.1.5-.5.8-1.1.8l-9.5-1.1,1.9-8.3,9,3c.5.2.8.7.7,1.2Z"/>
          <path class="cls-5" d="M253.8,82.5l-2.7,3.4c-.3.4-.9.5-1.3.3l-8.1-5.1,5.3-6.6,6.8,6.7c.4.4.4,1,0,1.4Z"/>
          <path class="cls-5" d="M241.9,93.3l-4,1.9c-.5.2-1,0-1.3-.3l-5.1-8.1,7.6-3.7,3.2,9c.2.5,0,1-.5,1.3Z"/>
        </g>
      </g>
      <g>
        <circle class="cls-3" cx="224.2" cy="61.8" r="15.9"/>
        <g>
          <polygon class="cls-3" points="235.1 83.5 231.5 85 224.4 72.9 231.7 70 235.1 83.5"/>
          <polygon class="cls-3" points="216.5 84.9 213 83.4 216.5 69.8 223.7 72.9 216.5 84.9"/>
          <polygon class="cls-3" points="202.4 72.7 201 69.1 213 62 216 69.3 202.4 72.7"/>
          <polygon class="cls-3" points="201.1 54.1 202.6 50.6 216.1 54.1 213.1 61.3 201.1 54.1"/>
          <polygon class="cls-3" points="213.3 40 216.9 38.6 224 50.6 216.7 53.6 213.3 40"/>
          <polygon class="cls-3" points="231.9 38.7 235.4 40.2 231.9 53.7 224.7 50.7 231.9 38.7"/>
          <polygon class="cls-3" points="245.9 50.9 247.4 54.5 235.3 61.6 232.4 54.3 245.9 50.9"/>
          <polygon class="cls-3" points="247.3 69.5 245.8 73 232.2 69.5 235.3 62.3 247.3 69.5"/>
        </g>
      </g>
      <circle class="cls-5" cx="224.2" cy="61.8" r="8.9"/>
    </g>
    <path class="cls-5" d="M159.2,101.9h130.1l-4.7,7.4c-2.3,3.7-6.4,5.9-10.7,5.9h-98c-3.9,0-7.6-1.8-10-4.8l-6.7-8.5Z"/>
    <path class="cls-4" d="M193.9,101.9h60.6v5.9c0,1.6-1.3,3-3,3h-54.7c-1.6,0-3-1.3-3-3v-5.9h0Z"/>
    <path class="cls-5" d="M207.8,102.3h31.6l-4.7,7.4c-.2.4-.6.6-1.1.6h-20.6c-.5,0-.9-.3-1.1-.7l-4.1-7.3Z"/>
  </g>
  <g>
    <path class="cls-5" d="M-85.9,27.8c-2.3-2-4.2-3.6-6.1-5.2-7.6-6.4-17.6-6.4-25.1.1-1.7,1.4-3.3,2.9-5.3,4.7.4-6.5-.9-13.2,5-17.8.9-.7,1.8-1.3,2.8-1.8,3.5-1.7,7.5-3.4,11.1-2.9,5.1.7,10.5,2.1,14.2,6.5,1.5,1.7,2.4,3.7,2.7,6,.6,3.3.4,6.6.7,10.5ZM-114.4,17.4c.5,0,.7,0,.9-.1,6.2-2.4,12.4-2.4,18.6,0,1,.4,1,0,1-.8,0-1.5,0-3,0-4.5,0-.8-.3-1.3-1-1.6-6.1-2.4-12.3-2.3-18.4,0-.7.3-1.1.8-1.1,1.6,0,1.8,0,3.6,0,5.5Z"/>
    <g>
      <polygon class="cls-5" points="-149 116.2 -149 116.2 -149 116.2 -149 116.2"/>
      <path class="cls-5" d="M-35.9,202.6c-1-.9-1.1-2,0-2.9.5-.5.4-.9,0-1.1-.5-.4-.5-.8-.6-1.4-.3-3.3-.7-3.8-4-4.4-7.9-1.5-15.8-3-23.7-4.5-1.9-.4-2.6,0-2.9,2-.1.6,0,1.3,0,1.9,0,2.6,0,2.6-2.6,2.5-1,0-1.3-.3-1.3-1.3,0-1.8,0-3.5.1-5.3,0-.6.1-.9-.6-.8-2.3.3-4.4.9-4.6,4.2,0,.8,0,1.5,0,2.3,0,.4,0,.7-.6.9-2.4.7-3.5,0-3.5-2.5,0-.8,0-1.6,0-2.5.1-2.1,1.2-3.5,3.2-4.1,1.1-.3,2.3-.5,3.4-.7-.2-.1-.4-.3-.6-.4,1.6-1.5-1-2.8-.1-4.3-.6-.6-1.1-1.3-1.7-1.8-.9-.6-1-1.4-.7-2.3.8.5,1.3-.8,2.1-.4.6-.5,1.5.3,2-.5,0,0,.2,0,.3,0,.7.5.6,2.9-.2,3.6-.2.8.6.9.9,1.5.4,0,.8,0,1,.4,0,0-.4.2-.6.3.3.6-.2,1-.6,1.3.2.4.7.4,1.1.4,0,0,0,0,0-.1,0,0,0,0,0,.1,0,.6,0,1.2,0,1.8,1.2.2,2.3.4,3.5.6,1.4.3,2.8.7,4.2,1,.9.2,1.5,0,1.6-1,0-.3,0-.8.5-1,.6.5.4,1.2.4,1.8,0,.7.3,1.1.9.9.6-.1,1.6.9,1.8,0,.3-1.5,1.2-.9,1.9-.8,1.6.3,3.1.7,4.6.9.8.1,1,.5,1.1,1.3.2,1.5,1.5.9,2.4,1.1,1,.2.5-.8.5-1.3,0-.4,0-.8,0-1.2.2-1.4-.4-2.1-1.8-2.4-2.3-.5-4.5-1.2-6.8-1.6-1.5-.3-2.1-.8-2.1-2.5.2-3.7,0-7.4.1-11,0-1.5-.4-2.5-2.1-2.5-1.4,0-2.1.8-2.1,2.6,0,3.9,0,7.7,0,11.6,0,1.2-.6,1.8-1.5,2.1-1.2.4-.8-1-1.3-1.4-.3-1.7-.7-3.3-1.4-4.8-2.3-1.3-2.6-2.1-1.4-3.5,0-.1,0-.2,0-.4-.2,0-.2-.7,0-.7.1-.6-.2-1.2-.4-1.8-.5-.1-.8-.3-.2-.7,0-.1-3.7-6.8-2.2-7-.1-.5,0-3.1,0-3.4,0-1.5,0-3.1-.1-4.6,0-1.3.1-2.6-.1-3.9,0-1.1,0-2.2,0-3.3,0-.2,0-.3,0-.4,0,.1,0,.3,0,.4,1-.5,2.1-1,3.1-1.5.8-.3,1.6-.4,2.4-.4.7.2,1.4.2,2-.2,0-.1.2-.3.3-.5,0,0,0-.3.3-.1,0,0-.1.1-.2.2.9.6,1.5-.1,2.1-.5,6.1-3.6,8.7-9.3,9-16.2,0-.2,0-.5,0-.7,0-.6,0-1.2,0-1.7-1.1-11.2-2.8-22.3-4.2-33.4-.7-5.7-2.6-10.6-7.7-13.9-3.1-2-6.4-3.4-9.7-4.9-4.5-2-9-4.1-13.8-6.3.9,4.3,2.1,8.1,4.1,12,.4-3.1.8-5.8,1.2-8.7,1.8.7,3.5,1.5,5.1,2.1.7.3.7.8.6,1.4-.3,2.5-.6,5-.8,7.5q-.5,4.4-4.9,4.2c0,0-.1,0-.2,0-2.3-.1-2.3-.1-1.8-2.4.2-1,.6-1.8-.5-2.6-2.3-1.8-4.5-3.7-6.7-5.6-.6-.6-1-.5-1.6,0-1.7,1.6-3.2,3.4-4.6,5.2-2.4,3.2-4.2,6.8-6,10.4-.4-.3-.3-.6-.3-.8.4-4.4,1.6-8.5,3.8-12.3,1.9-3.2,4.3-6.1,7-8.7.9-.9,1.2-1.8,1.2-3.1-.2-3-.2-6.1-.4-9.1-.1-2.2,0-4.4,1.2-6.4.5-.8.7-1.9.8-2.9.1-1.1.1-2.1,1.7-2.2.8,0,1.1-.9,1.5-1.6,1-2,1.5-4,1.5-6.2,0-.8,0-1.5.8-2.1.7-.7,1-1.8,0-2.7-.6-.5-1.4-1-.4-2.1.6-.6,0-1.5-.7-1.9-3.7-2.2-6.9-5.2-10.8-7.2-5.2-2.8-10.4-2.7-15.6,0-3.6,1.9-6.6,4.6-9.9,6.9-.4.3-.8.6-.9,1.2-.5,3.6-.4,7.2.4,10.8.3,1.3.7,2.5,1.3,3.6.5.9,1.1,1.7,2.3,1.7.9,0,.9.5,1,1.1.1,2.1.5,4.1,1.7,5.8.4.5.3,1.1.3,1.7-.1,3.7,0,7.4-.4,11-.2,2.1.4,3.5,1.9,4.9,4.9,4.6,8.3,10.1,9.7,16.7.2,1.2.5,2.3.2,3.6-.9-1.4-1.7-2.8-2.4-4.2-2.1-4-4.7-7.6-8.1-10.7-.7-.7-1.2-.8-2,0-2.1,1.9-4.2,3.7-6.4,5.5-.7.6-1.1,1.2-.6,2.1.3.5.3,1.1.4,1.7.2.9,0,1.1-1,1.1-1.5,0-2.9,0-4.4.1-.9,0-1.2-.2-1.4-1.1-.3-2.2-.7-4.4-1-6.6-.2-1.6-1.3-3.6-.5-4.7.8-1.2,2.9-1.5,4.4-2.3,1-.6,1.2-.2,1.3.8.3,2.4.7,4.8,1.1,7.7,1.9-4,2.8-7.9,3.8-11.9-2.2.6-4.1,1.8-6.1,2.7-4.8,2.2-9.8,4.2-14.5,6.6-5.4,2.8-8.7,7.1-9.5,13.2-.9,6.4-1.8,12.7-2.7,19.1.4.2-.9,7.2-.9,7.4-.2.8-.4,1.6-.3,2.5,0,.5-.1.9-.2,1.4-.3,2-.5,4-.5,6-.2,1.4,0,2.8.3,4.2.5,3.4,1.8,6.5,4.1,9.2.1.4.5.8.8,1,.6,0,2.7,2.7,3.7,3.2.7-.4,2.7,1.5,3.4,1.3,2-.6,3.5.5,5.2,1.3,1,.5,1.2,1,1.3,2.1.4,4-1.1,8.1.9,12,0,.2,0,.5,0,.7-1.2,6.7-2.4,13.4-3.7,20.2-.1.7,0,1.8-1.3,1.7-1.3-.1-.8-1.1-.8-1.8,0-7.2,0-14.5,0-21.7,0-1.7.3-3.5-.4-5.1-.4,0-.8.1-.9.5-.3,2.5-2.3,1.6-3.6,1.5-1.3,0-1.5-1.4-1.5-2.5-.9.4-.9,1.1-1,1.9,0,2.1,0,4.2,0,6.3,0,7.3,0,14.5,0,21.8,0,1,0,1.5-1.3,1.6-2.4.2-3.5,1.6-3.5,4,0,9.9,0,19.8,0,29.6,0,3.7,2.9,6.8,6.5,7.3,1.3.2,3.2-.7,3.8.5.6,1.1,0,2.8,0,4.3,0,.2,0,.3,0,.5-.8,13.5-1.6,27-2.4,40.4,0,1.4.2,1.8,1.7,1.7,9.9,0,19.8-.1,29.6,0,1.3,0,1.5-.4,1.7-1.5,1.8-13.2,3.5-26.4,5.4-39.6,1.1-7.7,2.4-15.3,3.6-23.5.3.8.4,1.1.4,1.4,1.7,10.6,3.4,21.2,5,31.9,1.5,9.8,2.9,19.7,4.3,29.5.1.8-.1,1.9,1.5,1.9,10,0,20,0,30,0,1.1,0,1.2-.4,1.1-1.4-.2-2.7-.3-5.4-.5-8.1-.6-8.5-1.2-17-1.7-25.5,0-1.1-.4-1.3-1.5-1.2-3.1.3-6.2.4-9.3.1-3.3-.2-5.7-2.4-5.7-5.5,0-10.2,0-20.5,0-30.7,0-.5,0-.9.6-1,2.7-.6,3.5,0,3.6,2.8,0,.2,0,.4,0,.5,0,8.8,0,17.7,0,26.5,0,1.8.2,3.5,2,4.6,1,.6,2.1.6,3,.3.7-.3,0-1.3,0-2,0-.3,0-.6,0-.9,0-10.2,0-20.3,0-30.5,0-.4-.1-1,.3-1.1,1.1,0,2.3-.2,3.3,0,.9.2.5,1.3.5,2,0,8.4,0,16.7,0,25.1,0,1.6-.1,3.3,0,4.9,0,1.9,1,2.8,2.9,2.6,8.4-.9,16.8-1.9,25.2-3.1,1.6-.2,2.3-1.2,2.5-2.7,0-.9,0-1.9,0-2.8,0-7.1,0-14.3,0-21.4,0-.6-.3-1.5.4-1.7,1.2-.4.9-.9.2-1.6ZM-68.3,184c0,0,0,.2,0,.3,0,0,0-.2,0-.3ZM-66.8,183.2s0,0,0,0c0,0,0,0,0,0ZM-66.1,182.3c0,0,0,.1-.1.2,0,0,0,.1-.1.2,0,0,0-.1.1-.2,0,0,0-.1.1-.2ZM-66.5,182.9c0,0,0,.1-.1.2,0,0,0-.1.1-.2ZM-54.1,114c0,0,.1.2.1.3,0,0,0,.2-.1.3,0,0-.1-.2-.1-.3,0,0,0-.2.1-.3ZM-54.7,112.9c0,0,.2,0,.3.1,0,0,0,.2-.1.3,0,0-.2,0-.3-.1,0,0,0-.2.1-.3ZM-54.8,117.9s0,0,0,.1c0,0-.1,0-.1,0,0,0,0,0,0-.1,0,0,.1,0,.1,0ZM-56.2,131.9s.1,0,.1,0c0,0,0,.1,0,.1,0,0,0,0-.1,0,0,0,0,0,0-.1ZM-56.9,130.6c0,0,0,.2-.1.2,0,0,0,0,0,0,0,0,0-.2.1-.2ZM-59.8,142.3c0,0,0-.2.1-.3,0,0,0,0,0,0,0,0,0,.2-.1.3ZM-59.4,142.2s0,0,0,0h0s0,0,0,0c0,0,0,0,0,0ZM-65.2,113.1s0,0,.1,0c0,0,0,.1,0,.1,0,0-.1,0-.1,0,0,0,0,0,0-.1ZM-58.8,113.4c.2,0,.3,0,.5,0,0,0,0,0,0,0-.2.2,0,.3.1.4,0,0-.1.2-.2.3,0,0,.1-.2.2-.3-1.7-.5-3,.6-4.4,1.2.9.8.9,1.9,1,3,.6,0,1.1-.2,1.7-.3-.3.4-.7.8-1,1.2-2.1,1.7-4.6.9-6.9.7-1.5-.1-3-.3-4.5-.4,3-3.4,9.6-6.3,13.5-5.8ZM-64.6,121.2s0,0,0,0c0,0,0-.2,0-.2,0,0,0,.2,0,.2ZM-66.6,123.1c.6.3,1.3.6,1.9.9,1.6,1.2,2.8,2.2,4.4,3.4,0,0,.8.9,1.4,2.1.2.6.6,1-.3,1.3-.6-1.1-1.7-1.7-2.7-2.3-2.4-1.7-5-2.8-8-3.1,1.7,1.3,3.1,3,4.7,4.4.5.8,1.1,1.6,1.6,2.5,0,.8,1.1,1.5.5,2.4-.2-.2-.3-.3-.5-.5h0c-.5-.4-.9-.7-1.4-1.1-1.6-1.2-3.2-2.3-5-3.2-1.4-1-2.9-1.7-4.4-2.4,0,0-.1.2-.2.2,1,1.5,1.9,3,2.9,4.5.5,1.4,1,2.8,1.4,4.2,0,.4,0,.7.3,1.1.2,2.2.5,4.3.7,6.5-.2,0-.4.2-.6.3-1.2.2-1.6,0-1.8-1.4-.3-3.8-1.4-7.5-3.7-10.6-.3-.5-.6-1.2-1.6-1.1.6,1.4,1.2,2.8,1.4,4.2.2.9,0,1.3-1.1,1.5-7.5,1.3-15.1,2.3-22.8,2.7,0-.7.6-.7.9-1,6.1-4.2,12.3-8,18.8-11.5,1.8-1,3.7-2,5.3-3.4,2.5-2.2,5.1-2.3,7.9-.8ZM-87.2,86.8c0-.7.7-.6,1.3-.4,3.1.7,6.3,1.1,9.4.1.8-.3,1.1.1,1.1.8,0,2.9,0,5.8-.4,8.7,0,.5-.1,1.1-.7,1-1.7-.2-1.4,1-1.1,1.7,1.2,3.2.5,6.3.1,9.1-.1-1.5-.3-3.5-.4-5.4,0-1.7-.9-2.4-2.5-2.4-1.7,0-3.4,0-5.1-.2-1.8,0-2.2-.7-2.1-2.5.1-1.4.2-2.6-.2-4.1-.6-2.2.5-4.4.7-6.6ZM-119.3,100.1c9.9,0,19.8,0,29.8,0,.9,0,1.8,0,2.5.6.5.4.8.9.6,1.5-.2.6-.8.3-1.2.3-5.5,0-11,0-16.5,0h0c-5.4,0-10.7,0-16.1,0-.7,0-1.7.4-1.8-.8,0-.9.8-1.3,1.6-1.6.3,0,.7,0,1,0ZM-86.6,109.1q0,2.2-2.3,2.2c-3.6,0-3.6,0-3.6-3.5,0-1.1-.4-1.4-1.4-1.4-6.8,0-13.7,0-20.5,0-1.2,0-1.3.5-1.3,1.5,0,3.4,0,3.4-3.4,3.4q-2.5,0-2.5-2.5c0-1.1,0-2.2,0-3.3,0-1.1.2-1.5,1.4-1.5,5.3,0,10.6,0,15.9,0,0,0,0,0,0,0,5.1,0,10.3,0,15.4,0,1.6,0,2.5.3,2.2,2.2-.2.9,0,1.9,0,2.8ZM-91.7,114.6c0,1.1-.6,1.2-1.5,1.2-7.3,0-14.6,0-21.9,0-1.1,0-1.1-.5-1.1-1.3,0-.9.3-1.1,1.1-1.1,3.7,0,7.3,0,11,0,0,0,0,0,0,.1,3.6,0,7.2,0,10.8,0,.6,0,1.4-.2,1.4,1ZM-131.8,86.4c3.3.6,6.6.7,9.8-.2.8-.2.9.4,1,.9.3,1.9.9,3.9.7,5.7-.3,1.9,0,3.7-.2,5.6,0,1.6-1.4,1.4-2.3,1.5-1.6.2-3.1,0-4.7,0-2.2,0-2.7.6-2.8,2.8,0,1.4,0,2.7,0,4.1-.2,0-.4,0-.7,0-.1-2-.3-4-.4-5.9,0-.6.2-1.1.4-1.7.4-1,1.2-2.1-.7-2.4-.6,0-.5-.7-.6-1.1-.2-2.8-.3-5.6-.5-8.4,0-.8.3-1.1,1-1ZM-136.2,144.3c-1.3-.1-1.4-.8-1.2-1.8.2-1.4,1.3-9.7,1.8-9.8.1-.5,1.3-3.7,1.5-4.2-.3,0,.9-1.9,1-2.1-.6,0-1.1-.3-1.5-.8-.2.1-6.7,6.3-7.1,5.5-1,.8-1.6,1.8-2.4,2.7.1.9-1.1,0-.7,0,.2-.6.3-1.1.5-1.7-.2-.1,0-.7.3-.7.5-1.2,1.1-2.3,1.6-3.5,1.4-1.8,2.8-3.6,4.6-5.1-2.7,0-4.9,1.2-6.7,3-1.9,1.5-3.4,3.2-4.5,5.4-.2.2-.7.1-.7,0-.2-.2-.4-.5-.6-.6-.7-.5,3.5-6,3.7-6.3.2-.2.4-.3.5-.5,3.5-3.7,7.5-5.5,12.6-3.4,1,.4,2.1.9,3.2.5-3.3-1.3-6.5-3.2-10.3-1.9-2.4.8-7.6,2.1-7.5,2.1.2-1.1,12.8-5.3,16.7-3.4.3.1.5.2.8.2,0-.6-.2-1.3-.3-1.9-.9-.3-1.8-.6-2.7-1-3.4-1.6-6.7-.5-10,.2-1.5.3-3,.7-4.6,1-.1.2-2.4.3-2.6-.4-.1-.6,5.3-3.8,5-4.8-.5,0-3.8-.7-3.6-.6,2.2-.8,4.4-1.5,6.6-2.3,3.7-1.3,7.1-.7,10.4,1.2,4.6,2.7,8.7,6.1,12.5,9.7,1.7,1.6,3.3,2.1,5.6,2,9.1-.6,18.2-1,27.2-2.3,4.1-.6,8.1-1.9,11.9-3.4.1,0,.3,0,.4,0,.1.2,0,.2-.2.3-1.6,2-3.5,3.7-5.4,5.4-.5.5-1.2.7-1.9.9-12.5,3-25.2,5.7-37.9,7.5-3.1.4-6.1.8-9.2.9-.8,0-1.3-.1-1.4-1.5-2.8,4.7-4.3,9.2-4.8,14.1,0,.6.5,1.6-1,1.5ZM-128.2,187c.3-4.3.5-8.5.9-12.8,0-.7-.1-1.2-.6-1.7-1.4-1.7-1.5-3.6-.4-5.3,1.1-1.7,3.1-2.6,5-2.2,2,.4,3.7,2.3,4,4.2.3,2.7-1.5,5.2-4.1,5.6-1.3.2-1.6.7-1.6,1.9-.1,3.5-.5,7-.6,10.5,0,1.3-.6,1.3-1.6,1.4-1.4,0-.8-.9-.9-1.5ZM-133.1,183.2c0,0,.2,0,.3,0,0-1.5,0-3,0-4.6,0-.4,0-1,.6-1,.7,0,.8.5.8.9,0,3,0,6.1,0,9.1,0,.8-.4.8-1,.8-.7,0-.7-.4-.7-.9,0-1.5,0-2.9,0-4.4ZM-132.3,177c-.7-.1-1.3-.3-1.4-1.1-.4-1.7.9-1.4,1.9-1.6-1.1-.7-1.1-1.7-.8-2.8.2-.6.5-.8,1-.7.6,0,.7.5.7,1,0,.4,0,.8,0,1.2-.3.9-.6,1.6.6,2.1.6.2.4,1.1,0,1.5-.5.6-1.2.5-1.9.4ZM-142.2,187.4c0-1.4.5-2,1.9-1.9,1,0,2.1,0,3.1,0,.8,0,1.1.4,1.1,1.2.1,2,.2,2-3,2-.5,0-.9,0-1.4,0-.8,0-1.9.3-1.8-1.3ZM-146.9,158.2c.2,0,.5-.1.7-.2.2-.5.5-.5.7,0,.4.3,1.1,0,1.6.6-1.3.1-1.2.9-1.2,1.9,0,9.1,0,18.2,0,27.7-.9-1.7-1.5-2.9-1.5-4.5,0-7.6,0-15.3,0-22.9,0-.7.3-1.4-.4-2-.4.3-.6.2-.6-.2,0-.4.2-.6.6-.3ZM-149.9,189.5c-.8,0-.6.7-.6,1.2,0,4.1,0,8.2,0,12.2h-.6c0-1.2-.3-2.4-.3-3.6,0-3.3-.1-6.5-.1-9.8,0-.6-.3-1.4.7-1.5,1-.2,2-.4,2.6.7.4.8.7,1.7,0,3-.2-.7-.2-1.1-.4-1.5-.3-.6-.8-.8-1.4-.8ZM-133.1,232.7c-1-1.4-.6-2.6.5-3.8.4-.4.8-.9,1.3-.3.3.5.4,1.2-.3,1.5-.9.4-1.3,1-1.1,1.9.3,1,1.1,1,2,1.2.8.1,1.6-.1,2.6.8-2,0-3.8.4-5-1.4ZM-120.4,220.1c0,3.2-1.4,5.4-4.3,6.5-1.3.5-1.6,1.2-1.5,2.5.2,1.2.6,2.4.2,3.7-1.6-.7-1.9-2.1-1.8-3.5.2-4.7-.3-9.3-.4-14,0-.3,0-.7,0-1.1-1.4.4-2.7.8-3.9,1.2-.9.4-1.2.3-1.2-.8,0-2.2-.1-4.5,0-6.7.1-1.7-.5-1.6-1.7-1.2-1.4.5-2.9,1-4.3,1.5-3.7,1.2-4.1,1.3-7.9.3v11.5c-.2,0-.4,0-.6,0-.7-4.8-.1-9.7-.5-15.1,2.3,3.2,4.9,2.1,7.4,1.7,2.9-.5,5.6-1.8,8.2-2.9.6-.3,1.1-3.2.6-3.5-.3-.2-.7,0-1,.1-1.4.5-2.8.9-4.1,1.4-.4.2-.9.3-.8-.4.2-1.2.3-2.5,1.7-2.9,2.1-.7,4.2-1.5,6.3-2.3,1.7-.6,2.4,0,2.4,1.7,0,8.3.2,16.6-.1,24.9,0,.6-.3,1.4.4,1.8.7.4,1.3-.1,1.9-.6,1.3-1,2.1-2.3,2.1-4,0-8.4,0-16.7,0-25.1,0-1.2-.3-1.6-1.5-1.6-6.1,0-12.3,0-18.4-.1-.5,0-1.1,0-1.6-.1-.3,0-.6,0-.6-.4,0-.3.3-.5.6-.6.7,0,1.4-.2,2.1-.2,6.8,0,13.7,0,20.5-.1,1.6,0,1.9.5,1.9,2,0,8.8,0,17.7,0,26.5ZM-140.8,195.5c.7,0,1.4-.2,1.3,1,0,1,0,1.7-1.4,1.6-.7,0-1.5-.1-2.3,0-1.3.2-1.9-.4-1.9-1.7,0-1.6,1.2-.6,1.8-.8.3-.1.7,0,1,0h0c.5,0,.9,0,1.4,0ZM-142.4,201.7c0-.6,0-1.2,0-1.7,0-.6.3-.8.9-.8.5,0,1.1,0,1,.8,0,1.3,0,2.6-.1,3.8,0,.5-.1.9-.8,1-.7,0-.9-.4-.9-1,0-.7,0-1.4,0-2.1,0,0,0,0,0,0ZM-115.9,181.6c-1.1,2-1.9,4.1-2.9,6.1-.3.6-.4,1.3-1.4,1-.7,0-1.4,0-.9-1.2,1-2.3,2-4.7,3-7.1.2-.5.4-1.4,1.3-.7.6.5,1.5.6.9,1.8ZM-115,178.3c-.5.5.5.8,0,1.3-.9-.3-1.9-.7-2.4-1.8.5-.6,1,.3,1.4-.2,0-.6-1.2-.9-.6-1.7.3-.4.4-1.3,1.2-.8.8.5,2.1.6,2.1,1.8,0,.8-.5,1.7-1.7,1.5ZM-91,156c-8.8,0-17.5,0-26.3,0-1.5,0-2.8-.3-3.9-1.7h35.2c-1.7,1.4-3.3,1.8-5,1.8ZM-78.7,199.6c-1.1.1-2.1.1-2-1.7,0-2.5,1.8-1.2,2.9-1.5,1.5-.4,1.3.7,1.4,1.7.2,1.8-1,1.6-2.2,1.5ZM-52.1,198.9c-4.9-.4-9.9-.6-14.8-.4,3.7,1.2,7.6,1,11.3,1.8-4,.3-8,0-12-.3-.8,0-1.5-.2-2.3-.2-1.1,0-1.5-.5-1.5-1.6,0-1.5.3-2.2,1.9-1.9,4.6.9,9.4,1.2,14,1.8,1.2.2,2.3.2,3.5.3,1.2-.2,2.3.6,3.6.4-1.2.3-2.5.3-3.7.2Z"/>
    </g>
  </g>
  <g>
    <path class="cls-5" d="M101.1,11.2h-24.8v11.7c0,1.4-1.2,2.6-2.6,2.6h-21.4c-1.4,0-2.6-1.2-2.6-2.6v-11.7h-26.9c-4.8,0-8.6,3.9-8.6,8.6v93.6c0,4.8,3.9,8.6,8.6,8.6h78.3c4.8,0,8.6-3.9,8.6-8.6V19.8c0-4.8-3.9-8.6-8.6-8.6ZM102.2,109.5c0,2.3-1.8,4.1-4.1,4.1H26.4c-2.3,0-4.1-1.8-4.1-4.1V23.1c0-2.3,1.8-4.1,4.1-4.1h17.9v6.6c0,2.9,2.3,5.2,5.2,5.2h27.1c2.9,0,5.2-2.3,5.2-5.2v-6.6h16.2c2.3,0,4.1,1.8,4.1,4.1v86.4Z"/>
    <rect class="cls-5" x="53.4" y="11.2" width="18.9" height="9.8"/>
    <path class="cls-5" d="M32.1,71.5l-4.2,4.3c-1.1,1.1-1.1,3,0,4.1l15.4,15.8c1.2,1.2,3.2,1.2,4.3,0l43.8-47.8c1.1-1.2,1-3,0-4.1l-3.7-3.7c-1.2-1.2-3.1-1.2-4.3,0l-35.7,38.1c-1.1,1.2-3,1.3-4.2.1l-7.2-6.9c-1.2-1.1-3-1.1-4.2,0Z"/>
    <rect class="cls-5" x="66.5" y="76.9" width="28.2" height="5.6" rx="2.6" ry="2.6"/>
    <rect class="cls-5" x="66.5" y="88" width="28.2" height="5.6" rx="2.6" ry="2.6"/>
    <rect class="cls-5" x="66" y="99.2" width="28.2" height="5.6" rx="2.6" ry="2.6"/>
  </g>
</svg>