<?xml version="1.0" encoding="UTF-8"?>
<svg id="Capa_1" data-name="Capa 1" xmlns="http://www.w3.org/2000/svg" viewBox="0 0 16 16">
  <defs>
    <style>
      .cls-1 {
        fill: #fcc306;
        stroke-width: 0px;
      }
    </style>
  </defs>
  <rect class="cls-1" x="4.43" y="3.22" width="8.68" height=".95" rx=".47" ry=".47"/>
  <path class="cls-1" d="M5.2,4.66c.24,1.76,1.75,3.11,3.57,3.11s3.33-1.35,3.57-3.11h-7.14Z"/>
  <path class="cls-1" d="M10.05.36v1.3c0,.16-.13.3-.3.3s-.3-.13-.3-.3V.2c-.12-.02-.24-.04-.36-.05v1.49c0,.17-.14.31-.31.31s-.31-.14-.31-.31V.16c-.1.01-.21.02-.31.04v1.45c0,.16-.13.3-.3.3s-.3-.13-.3-.3V.37c-1.21.45-2.12,1.54-2.31,2.85h7.13c-.19-1.33-1.11-2.42-2.34-2.86Z"/>
  <path class="cls-1" d="M5.45,9.67c.05-.08.08-.17.08-.26,0-.26-.21-.48-.48-.48s-.48.21-.48.48c0,.1.03.19.08.26h-.85v.42c0,.2.16.35.35.35h1.79c.2,0,.35-.16.35-.35v-.42h-.85ZM5.05,9.17c.13,0,.24.11.24.24s-.11.24-.24.24-.24-.11-.24-.24.11-.24.24-.24Z"/>
  <path class="cls-1" d="M6.91,9.94h-.02c-.18,0-.33.15-.33.33v.08c0,.18-.15.33-.33.33h-2.36c-.18,0-.33-.15-.33-.33v-.08c0-.18-.15-.33-.33-.33s-.33.15-.33.33v5.24c0,.18.15.33.33.33h3.69c.18,0,.33-.15.33-.33v-5.24c0-.18-.15-.33-.33-.33ZM6.79,14.8c0,.15-.12.26-.26.26h-2.96c-.15,0-.26-.12-.26-.26v-3.59c0-.15.12-.26.26-.26h2.96c.15,0,.26.12.26.26v3.59Z"/>
  <g>
    <circle class="cls-1" cx="5.04" cy="9.41" r=".24"/>
    <path class="cls-1" d="M10.88,8.3h-3.9c-.42,0-.75.08-.96.21s-.29.42-.15.64c.03.05.07.08.1.08.44-.02.56.12.68.25.06.06.13.09.21.08.55-.04.82.41.82.58l-.02,3.83c0,.13.1.23.23.23h2.99c.72,0,1.31-.59,1.31-1.31v-3.27c0-.72-.59-1.31-1.31-1.31Z"/>
  </g>
  <path class="cls-1" d="M4.82,11.66l-.07-.07s-.07-.03-.1,0l-.42.42s-.07.03-.1,0l-.12-.12s-.07-.03-.1,0l-.07.07s-.03.07,0,.1l.16.16h0s.17.17.17.17h0s0,0,0,0l.17-.17h0s.47-.47.47-.47c.03-.03.03-.07,0-.1Z"/>
  <path class="cls-1" d="M4.82,12.48l-.07-.07s-.07-.03-.1,0l-.42.42s-.07.03-.1,0l-.12-.12s-.07-.03-.1,0l-.07.07s-.03.07,0,.1l.16.16h0s.17.17.17.17h0s0,0,0,0l.17-.17h0s.47-.47.47-.47c.03-.03.03-.07,0-.1Z"/>
  <path class="cls-1" d="M4.84,13.31l-.07-.07s-.07-.03-.1,0l-.42.42s-.07.03-.1,0l-.12-.12s-.07-.03-.1,0l-.07.07s-.03.07,0,.1l.16.16h0s.17.17.17.17h0s0,0,0,0l.17-.17h0s.47-.47.47-.47c.03-.03.03-.07,0-.1Z"/>
</svg>