<?xml version="1.0" encoding="UTF-8"?>
<svg xmlns="http://www.w3.org/2000/svg" version="1.1" viewBox="0 0 16 16">
  <defs>
    <style>
      .cls-1 {
        fill: #fff;
      }
    </style>
  </defs>
  <!-- Generator: Adobe Illustrator 28.6.0, SVG Export Plug-In . SVG Version: 1.2.0 Build 709)  -->
  <g>
    <g id="Capa_1">
      <path class="cls-1" d="M8,15c-3.9,0-7-3.1-7-7S4.1,1,8,1s7,3.1,7,7-3.1,7-7,7M8,16c4.4,0,8-3.6,8-8S12.4,0,8,0,0,3.6,0,8s3.6,8,8,8"/>
      <path class="cls-1" d="M4.6,4.6c.2-.2.5-.2.7,0,0,0,0,0,0,0l2.6,2.6,2.6-2.6c.2-.2.5-.2.7,0s.2.5,0,.7l-2.6,2.6,2.6,2.6c.2.2.2.5,0,.7s-.5.2-.7,0l-2.6-2.6-2.6,2.6c-.2.2-.5.2-.7,0s-.2-.5,0-.7l2.6-2.6-2.6-2.6c-.2-.2-.2-.5,0-.7,0,0,0,0,0,0"/>
    </g>
  </g>
</svg>